<?xml version="1.0" encoding="utf-8"?>
<!-- Generator: Adobe Illustrator 28.1.0, SVG Export Plug-In . SVG Version: 6.00 Build 0)  -->
<svg version="1.1" id="Layer_2" xmlns="http://www.w3.org/2000/svg" xmlns:xlink="http://www.w3.org/1999/xlink" x="0px" y="0px"
	 viewBox="0 0 1500 500" style="enable-background:new 0 0 1500 500;" xml:space="preserve">
<style type="text/css">
	.st0{fill:#EDEDEE;}
	.st1{fill:#026186;}
	.st2{font-family:'MrsEavesSmallCapsOT';}
	.st3{font-size:87.2058px;}
	.st4{letter-spacing:4;}
	.st5{font-family:'MrsEavesAllPetiteCapsOT';}
	.st6{font-size:72.2562px;}
	.st7{letter-spacing:3;}
</style>
<rect x="496" y="-246" transform="matrix(2.651041e-11 -1 1 2.651041e-11 495.9609 995.9609)" class="st0" width="500" height="991.9"/>
<circle class="st0" cx="1250" cy="250" r="250"/>
<circle class="st0" cx="250" cy="250" r="250"/>
<g>
	<g>
		<path class="st1" d="M207.5,312.7h13.4l-1.6,40.1c0,0,0.1,5.5,0.3,7c0.1,1.5,1.5,10,1.5,10l1.4,7.7l1.4,5.6l1.7,6.6
			c0,0,1.5,3.6,1.8,4.2c0.3,0.6,2.1,3.8,2.1,3.8s3.3,4.3,3.6,4.7c0.4,0.4,3.2,2.7,4.1,3.1c0.9,0.4,2.3,1.4,4.5,2.1
			c2.2,0.6,3.9,0.6,3.9,0.6v9.4h-74.3v-9.5c0,0,3.8-1.3,5.5-2.3c1.7-1,4.3-2.9,5.1-3.6c0.8-0.6,4-4.3,5.4-6.8c1.3-2.6,4.1-8,4.6-9.5
			c0.5-1.5,3-8.4,3.4-9.8c0.4-1.4,2.5-8.7,2.8-9.7c0.3-1,3.4-13.1,3.4-13.1s2.5-11.4,2.9-15.6C204.9,333.8,207.5,312.7,207.5,312.7z
			"/>
		<path class="st1" d="M220.9,312.7l2.3-35.7l1.3-28.2l1-21.1l1.1-19l2.3-31.2l1.8-19.2l3.1-32.8l1.2-14l7,17.2l6.4,15.6l4.3,11.1
			l8.7,21.7l3.8,9.6l7.9,19.4l9,22.6L295,260l17.1,42.6h7.4l11.8-27.6l12.2-28.7l10.4-24.4l16-35.5l12.2-24.3l10.2-18.9l8.5-15.4
			l2.3,23l2.6,26.3l0.9,8.6l2.8,28l3.6,35.8l1.1,10.4c0,0,0.1,4.3,0,6.1c-0.1,1.9,0.1,3.8-0.7,7.3c-0.9,3.6-1.6,5.7-2.8,7.1
			c-1.1,1.4-2.8,2.6-3.9,3.3c-1.1,0.7-4.6,1.9-6.2,2.2c-1.6,0.3-1.8,0.4-3.8,0.6c-1.9,0.2-5.3,0.2-5.3,0.2v8h165h13.5h3.6
			c0,0,1.6,0.1,1.9,0.2c0.3,0.1,2.2,0.9,2.5,1.3c0.3,0.5,1.9,2.3,2.1,3.8c0.2,1.5,0,2.6,0,2.6h8l6.9-32.4l7.7-35.5h-11.9l-2.1,8.9
			c0,0-1.6,6.2-3.6,10.4c-2,4.2-2.1,4.5-3.7,7c-1.6,2.6-3.1,4.9-5.3,7.6c-2.2,2.7-4.1,4.5-6.9,6.5c-2.8,2.1-4.8,3.7-7.6,5
			c-2.8,1.4-6.6,2.7-8.3,3.3c-1.7,0.6-4.9,1.6-9.4,2.2c-4.5,0.6-7,1-9.7,1.1c-2.7,0.1-23.6,0-23.6,0v-35.3l0.1-33.1v-30.8v-38.6
			v-29.9c0,0,0.1-10.2,1.3-13.4c1.1-3.2,2.2-5.6,3.2-6.9c1-1.3,3.3-2.9,4.5-3.6c1.2-0.6,5.7-1.8,8-2.1c2.3-0.4,7.8-0.8,7.8-0.8v-8.1
			H397.4L385.1,119l-7.8,19.2l-9.8,23.7l-11.4,27.5l-8.3,19.7l-14.9,35l-9.3-25.5l-12.8-35.3l-9.2-25.5l-12-33l-14.4-40.4h-72.6v7.8
			c0,0,5.5,0.3,8.1,0.8c2.6,0.6,4.6,1.1,6.4,2.1c1.8,1,3.9,2.6,4.5,3.8c0.6,1.2,1.6,3.3,1.8,4.3c0.2,1,0.6,4.6,0.7,5.9
			c0.1,1.3,0.1,6.5-0.2,10c-0.3,3.5-1.1,13.5-1.1,13.5l-1.7,16.3l-1.9,19.3l-2.1,21.2l-2.2,19.8l-7.3,103.6H220.9z"/>
	</g>
	<path class="st1" d="M171.6,422.7h74v13c0,0-9.2,2.2-9.6,2.5c-0.4,0.2-6.5,2.4-6.5,2.4l-6,2.8l-3.7,2.2c0,0-2.7,1.9-3.4,2.6
		c-0.7,0.8-2.1,1.9-2.8,2.8c-0.7,0.9-1.7,2.1-2.4,3.8c-0.7,1.7-1.1,2.7-1.2,4c-0.1,1.4-0.1,1.8-0.1,1.8h-3c0,0-0.1-4.9-2.6-8.1
		c-2.5-3.2-4.5-4.9-4.5-4.9l-2.5-1.9c0,0-2.1-1.3-2.8-1.7c-0.7-0.4-4.1-2.1-4.1-2.1l-3.8-1.7c0,0-5-1.9-5.7-2.1
		c-0.6-0.2-5.6-1.5-5.6-1.5l-4.1-1v-13H171.6z"/>
</g>
<circle class="st0" cx="800.8" cy="-192.3" r="150"/>
<g>
	<g>
		<path class="st1" d="M-354,837.1h12.8l-1.6,38.4c0,0,0.1,5.3,0.3,6.7c0.1,1.4,1.4,9.6,1.4,9.6l1.4,7.4l1.3,5.4l1.6,6.3
			c0,0,1.4,3.5,1.7,4c0.3,0.5,2,3.6,2,3.6s3.1,4.2,3.5,4.5c0.3,0.3,3.1,2.6,3.9,3c0.8,0.4,2.2,1.4,4.4,2c2.1,0.6,3.7,0.6,3.7,0.6v9
			h-71.1v-9.1c0,0,3.7-1.3,5.3-2.2c1.6-0.9,4.1-2.8,4.9-3.4c0.7-0.6,3.9-4.1,5.2-6.5c1.3-2.4,3.9-7.7,4.4-9.1c0.5-1.4,2.9-8,3.3-9.4
			c0.4-1.4,2.4-8.3,2.7-9.3c0.3-1,3.3-12.5,3.3-12.5s2.4-10.9,2.8-14.9C-356.6,857.2-354,837.1-354,837.1z"/>
		<path class="st1" d="M-341.3,837.1l2.2-34.2l1.3-27l1-20.2l1.1-18.2l2.2-29.9l1.7-18.4l3-31.4l1.1-13.4l6.7,16.5l6.1,14.9
			l4.2,10.6l8.3,20.8l3.7,9.2l7.5,18.6l8.6,21.6l12.2,30.1l16.3,40.8h7.1l11.3-26.4l11.7-27.5l10-23.3l15.3-33.9l11.6-23.3l9.7-18.1
			l8.1-14.7l2.2,22l2.4,25.2l0.9,8.2l2.7,26.8l3.4,34.3l1,10c0,0,0.1,4.1,0,5.9c-0.1,1.8,0.1,3.6-0.7,7c-0.8,3.4-1.6,5.4-2.7,6.8
			c-1.1,1.4-2.7,2.5-3.7,3.2c-1,0.7-4.4,1.8-5.9,2.1c-1.5,0.3-1.8,0.4-3.6,0.6c-1.8,0.2-5,0.2-5,0.2v7.6h158h12.9h3.4
			c0,0,1.6,0.1,1.8,0.1c0.3,0.1,2.1,0.8,2.4,1.3c0.3,0.5,1.8,2.2,2,3.6c0.2,1.4,0,2.5,0,2.5H10l6.6-31l7.3-33.9H12.6l-2,8.5
			c0,0-1.5,5.9-3.4,9.9c-1.9,4-2,4.3-3.5,6.7c-1.5,2.4-2.9,4.7-5,7.3c-2.1,2.6-3.9,4.3-6.6,6.3c-2.7,2-4.6,3.5-7.3,4.8
			c-2.7,1.3-6.3,2.6-8,3.2c-1.6,0.6-4.7,1.6-9,2.1c-4.3,0.5-6.7,0.9-9.3,1c-2.6,0.1-22.6,0-22.6,0v-33.8l0.1-31.7v-29.5v-36.9v-28.6
			c0,0,0.1-9.8,1.2-12.9c1.1-3.1,2.1-5.4,3.1-6.6c0.9-1.2,3.2-2.8,4.4-3.4c1.2-0.6,5.4-1.7,7.7-2c2.2-0.3,7.5-0.7,7.5-0.7v-7.8h-132
			l-11.8,33.1l-7.4,18.4l-9.4,22.7l-11,26.3l-8,18.8l-14.3,33.5l-8.9-24.4l-12.3-33.8l-8.8-24.4l-11.5-31.6l-13.8-38.6h-69.5v7.5
			c0,0,5.3,0.3,7.7,0.8c2.5,0.5,4.4,1,6.1,2c1.7,1,3.7,2.5,4.4,3.7c0.6,1.2,1.5,3.2,1.7,4.2c0.2,1,0.6,4.4,0.7,5.6
			c0.1,1.2,0.1,6.2-0.2,9.5c-0.3,3.3-1.1,12.9-1.1,12.9l-1.6,15.6l-1.8,18.4l-2,20.3l-2.1,19l-7,99.2H-341.3z"/>
	</g>
	<path class="st1" d="M-388.5,942.4h70.9v12.5c0,0-8.8,2.1-9.2,2.3c-0.3,0.2-6.2,2.3-6.2,2.3l-5.7,2.7l-3.5,2.2c0,0-2.6,1.8-3.3,2.5
		c-0.7,0.7-2,1.8-2.7,2.7c-0.7,0.9-1.6,2-2.3,3.7c-0.7,1.6-1,2.5-1.1,3.9c-0.1,1.3-0.1,1.8-0.1,1.8h-2.9c0,0-0.1-4.7-2.5-7.8
		c-2.4-3.1-4.3-4.7-4.3-4.7l-2.4-1.8c0,0-2-1.2-2.7-1.6c-0.7-0.4-3.9-2-3.9-2l-3.7-1.6c0,0-4.8-1.8-5.4-2c-0.6-0.2-5.4-1.4-5.4-1.4
		l-3.9-1v-12.5H-388.5z"/>
</g>
<text transform="matrix(1 0 0 1 666.0333 197.6943)" class="st2 st3 st4">Melissa Lamelza</text>
<text transform="matrix(1 0 0 1 716.8467 250)" class="st1 st5 st6 st7">Software Developer</text>
</svg>
